<?xml version="1.0" encoding="iso-8859-1"?>
<!-- Generator: Adobe Illustrator 19.0.0, SVG Export Plug-In . SVG Version: 6.00 Build 0)  -->
<svg version="1.1" id="Layer_1" xmlns="http://www.w3.org/2000/svg" xmlns:xlink="http://www.w3.org/1999/xlink" x="0px" y="0px"
	 viewBox="0 0 512 512" style="enable-background:new 0 0 512 512;" xml:space="preserve">
<circle style="fill:#FFC91B;" cx="256" cy="256" r="256"/>
<path style="fill:#D48B07;" d="M142.222,393.04l118.894,118.894c122.504-2.403,223.901-90.85,246.269-207.407L369.778,166.921
	L142.222,393.04z"/>
<polygon style="fill:#FFFFFF;" points="311.453,108.596 142.222,108.596 142.222,393.04 369.778,393.04 369.778,166.921 "/>
<polygon style="fill:#D3D3D3;" points="369.778,166.921 311.453,108.596 254.852,108.596 254.852,393.04 369.778,393.04 "/>
<polygon style="fill:#939393;" points="311.453,166.921 369.778,166.921 311.453,108.596 "/>
<path style="fill:#C4C4C4;" d="M256,170.667c-31.418,0-56.889,25.471-56.889,56.889s25.471,56.889,56.889,56.889
	s56.889-25.471,56.889-56.889S287.418,170.667,256,170.667z M256,257.724c-16.662,0-30.168-13.507-30.168-30.168
	s13.507-30.168,30.168-30.168s30.168,13.507,30.168,30.168S272.662,257.724,256,257.724z"/>
<path style="fill:#939393;" d="M256,170.667c-0.384,0-0.765,0.021-1.148,0.029v26.75c0.384-0.016,0.76-0.059,1.148-0.059
	c16.662,0,30.168,13.507,30.168,30.168S272.662,257.724,256,257.724c-0.388,0-0.764-0.043-1.148-0.059v26.75
	c0.383,0.007,0.764,0.029,1.148,0.029c31.418,0,56.889-25.471,56.889-56.889S287.418,170.667,256,170.667z"/>
<g>
	<rect x="170.667" y="304.269" style="fill:#C4C4C4;" width="170.667" height="6.896"/>
	<rect x="170.667" y="341.333" style="fill:#C4C4C4;" width="170.667" height="6.896"/>
</g>
<g>
	<rect x="254.845" y="304.269" style="fill:#939393;" width="86.488" height="6.896"/>
	<rect x="254.845" y="341.333" style="fill:#939393;" width="86.488" height="6.896"/>
</g>
<g>
</g>
<g>
</g>
<g>
</g>
<g>
</g>
<g>
</g>
<g>
</g>
<g>
</g>
<g>
</g>
<g>
</g>
<g>
</g>
<g>
</g>
<g>
</g>
<g>
</g>
<g>
</g>
<g>
</g>
</svg>
